# xmcd
#
# Track frame offsets: 
#        150
#        23142
#        39492
#        58190
#        68498
#        89321
#
# Disc length: 1404 seconds
#
# Revision: 0
# Processed by: cddbd v1.5.2PL0 Copyright (c) Steve Scherf et al.
# Submitted via: ExactAudioCopy v1.3
#
DISCID=45057a06
DTITLE=Béla Fleck and Abigail Washburn - Banjo, banjo
DYEAR=2015
DGENRE=Bluegrass
TTITLE0=Banjo Banjo (Live)
TTITLE1=Hao Hua Hong
TTITLE2=Shotgun Blues (Live)
TTITLE3=Evening In Transylvania
TTITLE4=Railroad (Live)
TTITLE5=The Final Countdown
EXTD=
EXTT0=
EXTT1=
EXTT2=
EXTT3=
EXTT4=
EXTT5=
PLAYORDER=
